<svg width="320" height="110" viewBox="0 0 320 110" fill="none" xmlns="http://www.w3.org/2000/svg">
<path d="M122.723 37.0056C123.918 39.089 124.515 41.5607 124.515 44.4209V54.661C124.515 58.8277 123.285 62.2175 120.86 64.8305C118.4 67.4435 115.202 68.75 111.265 68.75H98.3672V0H109.86C113.831 0 117.029 1.3065 119.454 3.91949C121.914 6.53249 123.144 9.92232 123.144 14.089V21.7514C123.144 26.7302 121.352 30.2613 117.767 32.3799C119.911 33.3686 121.563 34.9223 122.758 37.0056H122.723ZM104.166 5.5791V30.2966H109.543C111.863 30.2966 113.726 29.5198 115.131 28.0014C116.537 26.483 117.24 24.2938 117.24 21.4336V14.3715C117.24 11.5113 116.537 9.32203 115.131 7.80367C113.726 6.28531 111.863 5.50847 109.543 5.50847H104.166V5.5791ZM118.681 44.7034C118.681 41.8432 117.978 39.6539 116.572 38.1356C115.166 36.6172 113.304 35.8404 110.984 35.8404H104.201V63.1709H110.984C113.304 63.1709 115.166 62.3941 116.572 60.8757C117.978 59.3573 118.681 57.1681 118.681 54.3079V44.6681V44.7034Z" fill="#04131C"/>
<path d="M160.624 68.75H154.798V5.5791H140.303V68.75H134.477V0H160.624V68.75Z" fill="#04131C"/>
<path d="M185.645 34.887H180.069V68.75H174.32V0H180.069V29.3079H185.818L193.61 0H199.843L190.389 31.9915L201.713 68.75H195.307L185.645 34.887Z" fill="#04131C"/>
<path d="M247.785 68.75H241.926V5.5791H231.515C231.056 15.4308 230.526 25.1766 229.856 34.7811C229.185 44.3856 228.585 51.0946 228.021 54.9435C227.315 59.8517 226.079 63.3828 224.315 65.5367C222.55 67.6907 220.009 68.75 216.656 68.75V63.1709C218.28 63.1709 219.586 62.4294 220.538 60.9816C221.491 59.5339 222.162 57.0975 222.621 53.7429C223.362 48.4463 224.103 40.4308 224.809 29.6963C225.515 18.9619 225.903 9.07486 226.044 0H247.785V68.75Z" fill="#6B8DA0"/>
<path d="M266.926 0H272.252L285.136 68.75H279.055L276.203 51.3771H262.941L260.089 68.75H254.008L266.892 0H266.926ZM275.31 45.798L269.606 11.2288L263.903 45.798H275.31Z" fill="#6B8DA0"/>
<path d="M313.901 31.1601C316.308 33.7744 317.512 37.166 317.512 41.3348V54.6538C317.512 58.8226 316.308 62.2142 313.901 64.8285C311.493 67.4428 308.363 68.75 304.51 68.75H292.609V0H315.104V5.58196H298.319V27.2386H304.51C308.397 27.2386 311.527 28.5457 313.901 31.1601ZM311.768 41.6527C311.768 38.7911 311.08 36.6007 309.704 35.0816C308.328 33.5624 306.505 32.7852 304.235 32.7852H298.319V63.2034H304.235C306.505 63.2034 308.328 62.4261 309.704 60.907C311.08 59.3878 311.768 57.1975 311.768 54.3358V41.6174V41.6527Z" fill="#6B8DA0"/>
<path d="M12.4533 83.75V110H11.2579V87.5906L3.47018 110H2.49219V83.75H3.68752V106.089L11.4753 83.75H12.4533Z" fill="#636466"/>
<path d="M24.994 89.545C24.994 88.0963 24.7299 86.958 24.2017 86.0611C23.6734 85.1643 22.8811 84.7158 21.7916 84.7158C20.7021 84.7158 19.9097 85.1643 19.3485 86.0611C18.7872 86.958 18.4901 88.1308 18.4901 89.545V104.239C18.4901 105.654 18.7872 106.792 19.3485 107.723C19.9097 108.62 20.7351 109.069 21.7916 109.069C22.848 109.069 23.7064 108.62 24.2347 107.723C24.7959 106.827 25.0601 105.654 25.0601 104.239V102.446H26.1495V104.343C26.1495 105.999 25.7534 107.378 24.994 108.413C24.2347 109.448 23.1452 110 21.7916 110C20.438 110 19.3815 109.483 18.5891 108.413C17.7968 107.344 17.4336 105.999 17.4336 104.343V89.407C17.4336 87.7513 17.8298 86.3716 18.5891 85.3367C19.3485 84.3019 20.438 83.75 21.7916 83.75C23.1452 83.75 24.2347 84.2674 24.961 85.3367C25.6873 86.406 26.0505 87.7513 26.0505 89.4415V90.9593H24.961V89.545H24.994Z" fill="#636466"/>
<path d="M39.8488 110H38.7208V84.7366H32.2608V110H31.1328V83.75H39.8146V110H39.8488Z" fill="#636466"/>
<path d="M53.3802 95.8897C54.1847 96.8046 54.5694 97.9658 54.5694 99.303V105.179C54.5694 106.552 54.1847 107.678 53.3802 108.593C52.5758 109.507 51.4915 109.965 50.0226 109.965H46.0703V83.75H47.2245V94.4822H50.0226C51.4566 94.4822 52.5758 94.9397 53.3802 95.8546V95.8897ZM53.4152 99.4437C53.4152 98.3177 53.1004 97.4028 52.5058 96.6287C51.9113 95.8546 51.0369 95.5027 49.9176 95.5027H47.2245V109.015H49.9176C51.0369 109.015 51.9113 108.628 52.5058 107.889C53.1004 107.15 53.4152 106.2 53.4152 105.074V99.4437ZM58.5217 83.7852V110H57.3675V83.7852H58.5217Z" fill="#636466"/>
<path d="M61.0117 83.75H70.9728V84.7366H66.6033V110H65.3813V84.7366H61.0117V83.75Z" fill="#636466"/>
<path d="M76.0477 83.75H77.0761L82.1828 110H80.9416L79.6295 102.777H73.5653L72.2532 110H70.9766L76.0832 83.75H76.0477ZM79.4167 101.826L76.5442 86.1107L73.7072 101.826H79.4167Z" fill="#636466"/>
<path d="M82.1797 83.75H92.1408V84.7366H87.7712V110H86.5492V84.7366H82.1797V83.75Z" fill="#636466"/>
<path d="M94.6328 83.75H101.936V84.7366H95.7384V95.8003H100.563V96.7869H95.7384V109.013H102.104V110H94.6328V83.75Z" fill="#636466"/>
<path d="M115.8 109.93H114.599V84.6661H109.36C109.178 89.1762 108.96 93.4396 108.669 97.4211C108.378 101.403 108.123 104.151 107.868 105.737C107.432 108.555 106.34 109.965 104.594 109.965V108.978C105.212 108.978 105.685 108.696 106.013 108.168C106.34 107.639 106.595 106.794 106.813 105.737C107.104 104.01 107.432 100.522 107.759 95.307C108.087 90.0923 108.269 86.2164 108.305 83.75H115.764V110L115.8 109.93Z" fill="#636466"/>
<path d="M128.293 95.906C129.107 96.8221 129.497 97.9849 129.497 99.3238V105.208C129.497 106.582 129.107 107.71 128.293 108.626C127.478 109.542 126.379 110 124.927 110H120.781V83.75H121.95V94.4966H124.927C126.379 94.4966 127.513 94.9547 128.293 95.8708V95.906ZM128.328 99.4648C128.328 98.3372 128.009 97.4211 127.407 96.646C126.804 95.8708 125.919 95.5185 124.785 95.5185H121.915V109.049H124.785C125.919 109.049 126.804 108.661 127.407 107.921C128.009 107.146 128.328 106.23 128.328 105.102V99.4648Z" fill="#636466"/>
<path d="M134.477 83.75H135.579V95.8003H142.09V83.75H143.193V110H142.09V96.7869H135.579V110H134.477V83.75Z" fill="#636466"/>
<path d="M152.001 83.75H153.029L158.136 110H156.895L155.583 102.777H149.518L148.206 110H146.93L152.036 83.75H152.001ZM155.37 101.826L152.497 86.1107L149.66 101.826H155.37Z" fill="#636466"/>
<path d="M169.34 83.7852V110H168.131V98.8455H165.129L160.844 110H159.379L163.993 98.7751C162.895 98.564 162.016 98.001 161.393 97.0861C160.734 96.1713 160.441 95.186 160.441 94.0248V88.5707C160.441 87.2336 160.88 86.1076 161.686 85.1575C162.528 84.2426 163.664 83.75 165.165 83.75H169.34V83.7852ZM168.131 84.7704H165.275C164.103 84.7704 163.224 85.1575 162.602 85.9316C161.979 86.7058 161.649 87.6206 161.649 88.7115V93.9544C161.649 95.0452 161.979 95.9601 162.602 96.7342C163.261 97.5084 164.14 97.8954 165.275 97.8954H168.131V84.7704Z" fill="#636466"/>
<path d="M189.261 109.93H188.06V84.6661H182.821C182.639 89.1762 182.421 93.4396 182.13 97.4211C181.839 101.403 181.584 104.151 181.329 105.737C180.893 108.555 179.801 109.965 178.055 109.965V108.978C178.673 108.978 179.146 108.696 179.474 108.168C179.801 107.639 180.056 106.794 180.274 105.737C180.565 104.01 180.893 100.522 181.22 95.307C181.548 90.0923 181.729 86.2164 181.766 83.75H189.225V110L189.261 109.93Z" fill="#636466"/>
<path d="M198.067 83.75H199.096L204.202 110H202.961L201.649 102.777H195.585L194.273 110H192.996L198.103 83.75H198.067ZM201.436 101.826L198.564 86.1107L195.727 101.826H201.436Z" fill="#636466"/>
<path d="M214.207 96.1527C215.022 97.0688 215.411 98.2315 215.411 99.5705V105.208C215.411 106.582 215.022 107.71 214.207 108.626C213.392 109.542 212.293 110 210.841 110H206.695V83.75H214.49V84.7366H207.865V94.7081H210.841C212.293 94.7081 213.427 95.1661 214.207 96.0822V96.1527ZM214.242 99.7114C214.242 98.5839 213.923 97.6678 213.321 96.8926C212.719 96.1175 211.833 95.7651 210.699 95.7651H207.829V109.084H210.699C211.833 109.084 212.719 108.696 213.321 107.956C213.923 107.181 214.242 106.265 214.242 105.138V99.7114Z" fill="#636466"/>
<path d="M219.148 89.407C219.148 87.7513 219.613 86.3715 220.505 85.3367C221.398 84.2674 222.612 83.75 224.147 83.75C225.682 83.75 226.896 84.2674 227.789 85.3367C228.681 86.406 229.11 87.7513 229.11 89.407V104.343C229.11 105.999 228.645 107.378 227.789 108.413C226.896 109.483 225.682 110 224.147 110C222.612 110 221.433 109.483 220.505 108.413C219.613 107.344 219.148 105.999 219.148 104.343V89.407ZM221.362 107.689C222.04 108.586 222.969 109.069 224.147 109.069C225.325 109.069 226.289 108.62 226.932 107.689C227.61 106.758 227.931 105.619 227.931 104.239V89.545C227.931 88.1652 227.61 87.0269 226.932 86.0956C226.253 85.1988 225.325 84.7158 224.147 84.7158C222.969 84.7158 222.04 85.1643 221.362 86.0956C220.684 87.0269 220.327 88.1652 220.327 89.545V104.239C220.327 105.619 220.684 106.792 221.362 107.689Z" fill="#636466"/>
<path d="M234.086 83.7852H238.078C239.579 83.7852 240.751 84.2433 241.557 85.1594C242.399 86.0755 242.802 87.2383 242.802 88.5772V94.4262C242.802 95.8003 242.399 96.9279 241.557 97.844C240.714 98.7601 239.579 99.2181 238.078 99.2181H235.294V110H234.086V83.75V83.7852ZM237.968 98.2668C239.14 98.2668 240.055 97.8792 240.678 97.1393C241.3 96.3641 241.63 95.448 241.63 94.3205V88.7181C241.63 87.5906 241.3 86.6745 240.678 85.8993C240.055 85.1242 239.14 84.7718 237.968 84.7718H235.294V98.2668H237.968Z" fill="#636466"/>
<path d="M249.118 83.75H250.146L255.253 110H254.012L252.7 102.777H246.636L245.324 110H244.047L249.154 83.75H249.118ZM252.487 101.826L249.615 86.1107L246.778 101.826H252.487Z" fill="#636466"/>
<path d="M255.254 83.75H265.215V84.7366H260.845V110H259.623V84.7366H255.254V83.75Z" fill="#636466"/>
<path d="M266.461 89.407C266.461 87.7513 266.925 86.3715 267.818 85.3367C268.71 84.2674 269.924 83.75 271.459 83.75C272.995 83.75 274.208 84.2674 275.101 85.3367C275.994 86.406 276.422 87.7513 276.422 89.407V104.343C276.422 105.999 275.958 107.378 275.101 108.413C274.208 109.483 272.995 110 271.459 110C269.924 110 268.746 109.483 267.818 108.413C266.925 107.344 266.461 105.999 266.461 104.343V89.407ZM268.674 107.689C269.353 108.586 270.281 109.069 271.459 109.069C272.638 109.069 273.602 108.62 274.244 107.689C274.923 106.758 275.244 105.619 275.244 104.239V89.545C275.244 88.1652 274.923 87.0269 274.244 86.0956C273.566 85.1988 272.638 84.7158 271.459 84.7158C270.281 84.7158 269.353 85.1643 268.674 86.0956C267.996 87.0269 267.639 88.1652 267.639 89.545V104.239C267.639 105.619 267.996 106.792 268.674 107.689Z" fill="#636466"/>
<path d="M281.402 83.7852H285.394C286.896 83.7852 288.067 84.2433 288.873 85.1594C289.715 86.0755 290.118 87.2383 290.118 88.5772V94.4262C290.118 95.8003 289.715 96.9279 288.873 97.844C288.031 98.7601 286.896 99.2181 285.394 99.2181H282.611V110H281.402V83.75V83.7852ZM285.284 98.2668C286.456 98.2668 287.372 97.8792 287.994 97.1393C288.617 96.3641 288.946 95.448 288.946 94.3205V88.7181C288.946 87.5906 288.617 86.6745 287.994 85.8993C287.372 85.1242 286.456 84.7718 285.284 84.7718H282.611V98.2668H285.284Z" fill="#636466"/>
<path d="M303.813 83.75V110H302.617V87.5906L294.83 110H293.852V83.75H295.047V106.089L302.835 83.75H303.813Z" fill="#636466"/>
<path d="M317.512 83.7852V110H316.303V98.8455H313.3L309.016 110H307.551L312.165 98.7751C311.066 98.564 310.188 98.001 309.565 97.0861C308.906 96.1713 308.613 95.186 308.613 94.0248V88.5707C308.613 87.2336 309.052 86.1076 309.858 85.1575C310.7 84.2426 311.836 83.75 313.337 83.75H317.512V83.7852ZM316.303 84.7704H313.447C312.275 84.7704 311.396 85.1575 310.773 85.9316C310.151 86.7058 309.821 87.6206 309.821 88.7115V93.9544C309.821 95.0452 310.151 95.9601 310.773 96.7342C311.433 97.5084 312.312 97.8954 313.447 97.8954H316.303V84.7704Z" fill="#636466"/>
<path d="M21.1719 2.29638V66.4536C21.1719 67.7255 21.7794 68.75 22.4883 68.75H31.0617C31.8043 68.75 32.3781 67.7255 32.3781 66.4536V2.29638C32.3781 1.02454 31.7705 0 31.0617 0H22.4883C21.7457 0 21.1719 1.02454 21.1719 2.29638Z" fill="#9DA8AB"/>
<path d="M9.96484 2.29638V66.4536C9.96484 67.7255 10.986 68.75 12.2259 68.75H16.4198C17.6597 68.75 18.6808 67.7255 18.6808 66.4536V2.29638C18.6808 1.02454 17.6597 0 16.4198 0H12.2259C10.986 0 9.96484 1.02454 9.96484 2.29638Z" fill="#CFD5D6"/>
<path d="M34.8672 2.29638V66.4536C34.8672 67.7255 35.7161 68.75 36.7349 68.75C37.7876 68.75 38.6026 67.7255 38.6026 66.4536V2.29638C38.6026 1.02454 37.7536 0 36.7349 0C35.6822 0 34.8672 1.02454 34.8672 2.29638Z" fill="#7998A3"/>
<path d="M65.9922 2.29284V66.4572C65.9922 67.727 67.3795 68.75 69.1137 68.75H75.322C77.0562 68.75 78.4435 67.727 78.4435 66.4572V2.29284C78.4435 1.02296 77.0562 0 75.322 0H69.1137C67.3795 0 65.9922 1.02296 65.9922 2.29284Z" fill="#083544"/>
<path d="M85.6068 0H82.4939C81.6416 0 80.9375 1.02454 80.9375 2.29638V66.4536C80.9375 67.7255 81.6416 68.75 82.4939 68.75H85.6068C86.4591 68.75 87.1632 67.7255 87.1632 66.4536V2.29638C87.1632 1.02454 86.4591 0 85.6068 0Z" fill="#04131C"/>
<path d="M58.5234 2.29638V66.4536C58.5234 67.7255 59.55 68.75 60.8426 68.75H61.1848C62.4775 68.75 63.504 67.7255 63.504 66.4536V2.29638C63.504 1.02454 62.4775 0 61.1848 0H60.8426C59.55 0 58.5234 1.02454 58.5234 2.29638Z" fill="#4E6C7C"/>
<path d="M41.0938 2.29638V66.4536C41.0938 67.7255 42.2563 68.75 43.7265 68.75H53.4027C54.8387 68.75 56.0354 67.7255 56.0354 66.4536V2.29638C56.0354 1.02454 54.8729 0 53.4027 0H43.7265C42.2905 0 41.0938 1.02454 41.0938 2.29638Z" fill="#6B8DA0"/>
<path d="M3.73828 2.29638V66.4536C3.73828 67.7255 4.31574 68.75 5.03756 68.75H7.41955C8.14137 68.75 8.71883 67.7255 8.71883 66.4536V2.29638C8.71883 1.02454 8.14137 0 7.41955 0H5.03756C4.31574 0 3.73828 1.02454 3.73828 2.29638Z" fill="#E0E2E2"/>
</svg>
