<svg width="60" height="60" viewBox="0 0 60 60" fill="none" xmlns="http://www.w3.org/2000/svg">
                        <g clip-path="url(#clip0_3135_7892)">
                            <g opacity="0.5">
                                <path d="M8.05 48.95C6.08 46.67 4.47 44.1 3.28 41.29C1.81 37.82 1 34 1 30C1 26 1.81 22.18 3.28 18.71C4.75 15.24 6.87 12.12 9.49 9.49C12.12 6.87 15.24 4.75 18.71 3.28C22.18 1.81 26 1 30 1C34 1 37.82 1.81 41.29 3.28" stroke="#9CD9C0" stroke-width="1.5" stroke-linecap="round" stroke-linejoin="round"></path>
                                <path d="M51.9509 11.05C53.9209 13.33 55.5309 15.9 56.7209 18.71C58.1909 22.18 59.0009 26 59.0009 30C59.0009 34 58.1909 37.8201 56.7209 41.2901C55.2509 44.7601 53.1309 47.88 50.5109 50.51C47.8809 53.13 44.7609 55.2501 41.2909 56.7201C37.8209 58.1901 34.0009 59 30.0009 59C26.0009 59 22.1809 58.1901 18.7109 56.7201" stroke="#38B282" stroke-width="1.5" stroke-linecap="round" stroke-linejoin="round"></path>
                                <path d="M12 45L14 55L4 53L12 45Z" stroke="#38B282" stroke-width="1.5" stroke-linecap="round" stroke-linejoin="round"></path>
                                <path d="M48 15L46 5L56 7L48 15Z" stroke="#38B282" stroke-width="1.5" stroke-linecap="round" stroke-linejoin="round"></path>
                            </g>
                            <path d="M30 50C41.0457 50 50 41.0457 50 30C50 18.9543 41.0457 10 30 10C18.9543 10 10 18.9543 10 30C10 41.0457 18.9543 50 30 50Z" stroke="#38B282" stroke-width="1.5" stroke-linecap="round" stroke-linejoin="round"></path>
                            <path d="M30 10V50" stroke="#38B282" stroke-width="1.5" stroke-linecap="round" stroke-linejoin="round"></path>
                            <path d="M10 30H50" stroke="#38B282" stroke-width="1.5" stroke-linecap="round" stroke-linejoin="round"></path>
                            <path d="M33.8984 10.39C35.9084 13.21 37.4284 16.34 38.4384 19.62C39.4784 22.97 39.9984 26.49 39.9984 30C39.9984 33.51 39.4784 37.03 38.4384 40.38C37.4284 43.66 35.9084 46.79 33.8984 49.61" stroke="#38B282" stroke-width="1.5" stroke-linecap="round" stroke-linejoin="round"></path>
                            <path d="M44.7583 16.51C42.7683 17.85 40.6383 18.89 38.4383 19.62C35.7083 20.54 32.8483 21 29.9983 21C27.1483 21 24.2883 20.54 21.5583 19.62C19.3583 18.89 17.2283 17.85 15.2383 16.51" stroke="#38B282" stroke-width="1.5" stroke-linecap="round" stroke-linejoin="round"></path>
                            <path d="M26.1 10.39C24.09 13.21 22.57 16.34 21.56 19.62C20.52 22.97 20 26.49 20 30C20 33.51 20.52 37.03 21.56 40.38C22.57 43.66 24.09 46.79 26.1 49.61" stroke="#38B282" stroke-width="1.5" stroke-linecap="round" stroke-linejoin="round"></path>
                            <path d="M15.2383 43.49C17.2283 42.15 19.3583 41.11 21.5583 40.38C24.2883 39.46 27.1483 39 29.9983 39C32.8483 39 35.7083 39.46 38.4383 40.38C40.6383 41.11 42.7683 42.15 44.7583 43.49" stroke="#38B282" stroke-width="1.5" stroke-linecap="round" stroke-linejoin="round"></path>
                        </g>
                        <defs>
                            <clipPath id="clip0_3135_7892">
                                <rect width="60" height="60" fill="white"></rect>
                            </clipPath>
                        </defs>
                    </svg>
