<svg width="35" height="35" viewBox="0 0 35 35" fill="none" xmlns="http://www.w3.org/2000/svg">
                                    <circle cx="17.5" cy="17.5" r="17.1196" stroke="white" stroke-width="0.76087"></circle>
                                    <path d="M13.126 11.4121C12.1805 11.4121 11.4141 12.1786 11.4141 13.1241V14.6458C11.4141 14.961 11.6696 15.2165 11.9847 15.2165C12.2999 15.2165 12.5554 14.961 12.5554 14.6458V13.1241C12.5554 12.8089 12.8109 12.5534 13.126 12.5534H14.6478C14.9629 12.5534 15.2184 12.2979 15.2184 11.9828C15.2184 11.6676 14.9629 11.4121 14.6478 11.4121H13.126Z" fill="white"></path>
                                    <path d="M20.3543 11.4121C20.0391 11.4121 19.7836 11.6676 19.7836 11.9828C19.7836 12.2979 20.0391 12.5534 20.3543 12.5534H21.876C22.1912 12.5534 22.4467 12.8089 22.4467 13.1241V14.6458C22.4467 14.961 22.7022 15.2165 23.0173 15.2165C23.3325 15.2165 23.588 14.961 23.588 14.6458V13.1241C23.588 12.1786 22.8215 11.4121 21.876 11.4121H20.3543Z" fill="white"></path>
                                    <path d="M12.5554 20.3523C12.5554 20.0372 12.2999 19.7817 11.9847 19.7817C11.6696 19.7817 11.4141 20.0372 11.4141 20.3523V21.8741C11.4141 22.8196 12.1805 23.586 13.126 23.586H14.6478C14.9629 23.586 15.2184 23.3305 15.2184 23.0154C15.2184 22.7002 14.9629 22.4447 14.6478 22.4447H13.126C12.8109 22.4447 12.5554 22.1892 12.5554 21.8741V20.3523Z" fill="white"></path>
                                    <path d="M23.588 20.3523C23.588 20.0372 23.3325 19.7817 23.0173 19.7817C22.7022 19.7817 22.4467 20.0372 22.4467 20.3523V21.8741C22.4467 22.1892 22.1912 22.4447 21.876 22.4447H20.3543C20.0391 22.4447 19.7836 22.7002 19.7836 23.0154C19.7836 23.3305 20.0391 23.586 20.3543 23.586H21.876C22.8215 23.586 23.588 22.8196 23.588 21.8741V20.3523Z" fill="white"></path>
                                </svg>
