<svg width="60" height="60" viewBox="0 0 60 60" fill="none" xmlns="http://www.w3.org/2000/svg">
                        <g clip-path="url(#clip0_3135_7920)">
                            <path opacity="0.5" d="M30 59C46.0163 59 59 46.0163 59 30C59 13.9837 46.0163 1 30 1C13.9837 1 1 13.9837 1 30C1 46.0163 13.9837 59 30 59Z" stroke="#38B282" stroke-width="1.5" stroke-linecap="round" stroke-linejoin="round"></path>
                            <path d="M22.0288 31.22C21.9888 30.81 21.9688 30.4 21.9688 29.99C21.9688 21.16 29.9988 14 29.9988 14C29.9988 14 38.0287 21.16 38.0287 29.99C38.0287 30.4 38.0088 30.81 37.9688 31.22" stroke="#38B282" stroke-width="1.5" stroke-linecap="round" stroke-linejoin="round"></path>
                            <path d="M30 46C33.36 46.03 38.95 45.5 42.87 42.22C47.21 38.59 48.57 32.39 49 29.28C46.49 29.18 41.93 29.31 37.97 31.22C36.97 31.7 36 32.3 35.12 33.04C32.43 35.28 30.89 38.51 30 41.38" stroke="#38B282" stroke-width="1.5" stroke-linecap="round" stroke-linejoin="round"></path>
                            <path d="M31 45.98C30.7 46 30.36 46 30 46C26.64 46.03 21.05 45.5 17.13 42.22C12.79 38.59 11.43 32.39 11 29.28C13.51 29.18 18.07 29.31 22.03 31.22C23.03 31.7 24 32.3 24.88 33.04C27.57 35.28 29.11 38.51 30 41.38C30.55 43.15 30.84 44.79 31 45.98Z" stroke="#38B282" stroke-width="1.5" stroke-linecap="round" stroke-linejoin="round"></path>
                        </g>
                        <defs>
                            <clipPath id="clip0_3135_7920">
                                <rect width="60" height="60" fill="white"></rect>
                            </clipPath>
                        </defs>
                    </svg>
