<svg width="347" height="121" viewBox="0 0 347 121" fill="none" xmlns="http://www.w3.org/2000/svg">
<path d="M132.572 40.7062C133.887 42.9979 134.544 45.7168 134.544 48.863V60.1271C134.544 64.7104 133.191 68.4393 130.523 71.3136C127.817 74.1879 124.299 75.625 119.969 75.625H105.781V0H118.423C122.791 0 126.309 1.43715 128.977 4.31144C131.683 7.18573 133.036 10.9145 133.036 15.4979V23.9266C133.036 29.4032 131.065 33.2874 127.121 35.6179C129.479 36.7055 131.297 38.4145 132.611 40.7062H132.572ZM112.16 6.137V33.3263H118.075C120.626 33.3263 122.675 32.4717 124.222 30.8016C125.768 29.1314 126.541 26.7232 126.541 23.577V15.8086C126.541 12.6624 125.768 10.2542 124.222 8.58404C122.675 6.91384 120.626 6.05932 118.075 6.05932H112.16V6.137ZM128.126 49.1737C128.126 46.0275 127.353 43.6193 125.807 41.9491C124.26 40.2789 122.212 39.4244 119.66 39.4244H112.199V69.488H119.66C122.212 69.488 124.26 68.6335 125.807 66.9633C127.353 65.2931 128.126 62.8849 128.126 59.7387V49.1349V49.1737Z" fill="white"/>
<path d="M174.263 75.625H167.854V6.137H151.909V75.625H145.5V0H174.263V75.625Z" fill="white"/>
<path d="M201.785 38.3757H195.652V75.625H189.328V0H195.652V32.2387H201.975L210.546 0H217.403L207.004 35.1907L219.46 75.625H212.413L201.785 38.3757Z" fill="white"/>
<path d="M270.14 75.625H263.695V6.137H252.243C251.738 16.9739 251.156 27.6942 250.418 38.2592C249.68 48.8242 249.02 56.2041 248.399 60.4378C247.623 65.8369 246.264 69.721 244.323 72.0904C242.382 74.4597 239.587 75.625 235.898 75.625V69.488C237.684 69.488 239.121 68.6723 240.169 67.0798C241.217 65.4873 241.955 62.8072 242.459 59.1172C243.275 53.291 244.09 44.4739 244.866 32.666C245.643 20.858 246.07 9.98234 246.225 0H270.14V75.625Z" fill="white"/>
<path d="M291.199 0H297.057L311.23 75.625H304.54L301.403 56.5148H286.815L283.678 75.625H276.988L291.161 0H291.199ZM300.42 50.3778L294.147 12.3517L287.873 50.3778H300.42Z" fill="white"/>
<path d="M342.866 34.2761C345.514 37.1518 346.838 40.8826 346.838 45.4683V60.1192C346.838 64.7048 345.514 68.4356 342.866 71.3113C340.217 74.1871 336.774 75.625 332.536 75.625H319.445V0H344.19V6.14016H325.726V29.9624H332.536C336.812 29.9624 340.255 31.4003 342.866 34.2761ZM340.52 45.818C340.52 42.6702 339.763 40.2608 338.25 38.5897C336.736 36.9187 334.731 36.0637 332.234 36.0637H325.726V69.5237H332.234C334.731 69.5237 336.736 68.6687 338.25 66.9977C339.763 65.3266 340.52 62.9172 340.52 59.7694V45.7792V45.818Z" fill="white"/>
<path d="M11.2775 92.125V121H9.96264V96.3497L1.39611 121H0.320312V92.125H1.63518V116.698L10.2017 92.125H11.2775Z" fill="white" fill-opacity="0.8"/>
<path d="M25.0743 98.4995C25.0743 96.9059 24.7838 95.6537 24.2027 94.6672C23.6216 93.6807 22.75 93.1874 21.5516 93.1874C20.3531 93.1874 19.4815 93.6807 18.8642 94.6672C18.2468 95.6537 17.9199 96.9438 17.9199 98.4995V114.663C17.9199 116.219 18.2468 117.471 18.8642 118.496C19.4815 119.482 20.3895 119.976 21.5516 119.976C22.7137 119.976 23.6579 119.482 24.239 118.496C24.8564 117.509 25.1469 116.219 25.1469 114.663V112.69H26.3454V114.777C26.3454 116.599 25.9096 118.116 25.0743 119.255C24.239 120.393 23.0406 121 21.5516 121C20.0626 121 18.9005 120.431 18.0289 119.255C17.1573 118.078 16.7578 116.599 16.7578 114.777V98.3477C16.7578 96.5264 17.1936 95.0087 18.0289 93.8704C18.8642 92.7321 20.0626 92.125 21.5516 92.125C23.0406 92.125 24.239 92.6942 25.038 93.8704C25.8369 95.0467 26.2364 96.5264 26.2364 98.3857V100.055H25.038V98.4995H25.0743Z" fill="white" fill-opacity="0.8"/>
<path d="M41.4118 121H40.171V93.2102H33.065V121H31.8242V92.125H41.3742V121H41.4118Z" fill="white" fill-opacity="0.8"/>
<path d="M56.2987 105.479C57.1836 106.485 57.6068 107.762 57.6068 109.233V115.697C57.6068 117.207 57.1836 118.445 56.2987 119.452C55.4138 120.458 54.2212 120.961 52.6053 120.961H48.2578V92.125H49.5274V103.93H52.6053C54.1827 103.93 55.4138 104.434 56.2987 105.44V105.479ZM56.3372 109.388C56.3372 108.149 55.9909 107.143 55.3369 106.292C54.6828 105.44 53.721 105.053 52.4899 105.053H49.5274V119.916H52.4899C53.721 119.916 54.6828 119.49 55.3369 118.678C55.9909 117.865 56.3372 116.82 56.3372 115.581V109.388ZM61.9543 92.1637V121H60.6847V92.1637H61.9543Z" fill="white" fill-opacity="0.8"/>
<path d="M64.6953 92.125H75.6525V93.2102H70.846V121H69.5018V93.2102H64.6953V92.125Z" fill="white" fill-opacity="0.8"/>
<path d="M81.2306 92.125H82.3619L87.9792 121H86.6139L85.1705 113.055H78.5L77.0567 121H75.6523L81.2696 92.125H81.2306ZM84.9365 112.008L81.7768 94.7218L78.656 112.008H84.9365Z" fill="white" fill-opacity="0.8"/>
<path d="M87.9805 92.125H98.9377V93.2102H94.1312V121H92.787V93.2102H87.9805V92.125Z" fill="white" fill-opacity="0.8"/>
<path d="M101.676 92.125H109.709V93.2102H102.892V105.38H108.199V106.466H102.892V119.915H109.894V121H101.676V92.125Z" fill="white" fill-opacity="0.8"/>
<path d="M124.96 120.922H123.639V93.1327H117.876C117.676 98.0938 117.435 102.784 117.115 107.163C116.795 111.543 116.515 114.566 116.235 116.31C115.755 119.411 114.554 120.961 112.633 120.961V119.876C113.313 119.876 113.833 119.566 114.194 118.985C114.554 118.403 114.834 117.473 115.074 116.31C115.394 114.411 115.755 110.574 116.115 104.838C116.475 99.1015 116.675 94.8381 116.715 92.125H124.92V121L124.96 120.922Z" fill="white" fill-opacity="0.8"/>
<path d="M138.7 105.497C139.596 106.504 140.025 107.783 140.025 109.256V115.729C140.025 117.24 139.596 118.481 138.7 119.488C137.804 120.496 136.595 121 134.997 121H130.438V92.125H131.724V103.946H134.997C136.595 103.946 137.843 104.45 138.7 105.458V105.497ZM138.739 109.411C138.739 108.171 138.388 107.163 137.726 106.311C137.063 105.458 136.089 105.07 134.842 105.07H131.685V119.954H134.842C136.089 119.954 137.063 119.527 137.726 118.713C138.388 117.861 138.739 116.853 138.739 115.613V109.411Z" fill="white" fill-opacity="0.8"/>
<path d="M145.504 92.125H146.716V105.38H153.879V92.125H155.091V121H153.879V106.466H146.716V121H145.504V92.125Z" fill="white" fill-opacity="0.8"/>
<path d="M164.778 92.125H165.909L171.526 121H170.161L168.717 113.055H162.047L160.604 121H159.199L164.817 92.125H164.778ZM168.483 112.008L165.324 94.7218L162.203 112.008H168.483Z" fill="white" fill-opacity="0.8"/>
<path d="M183.852 92.1637V121H182.522V108.73H179.219L174.506 121H172.895L177.97 108.653C176.762 108.42 175.795 107.801 175.11 106.795C174.385 105.788 174.063 104.705 174.063 103.427V97.4278C174.063 95.9569 174.546 94.7183 175.432 93.6733C176.359 92.6669 177.608 92.125 179.259 92.125H183.852V92.1637ZM182.522 93.2475H179.38C178.091 93.2475 177.124 93.6733 176.439 94.5248C175.755 95.3763 175.392 96.3827 175.392 97.5826V103.35C175.392 104.55 175.755 105.556 176.439 106.408C177.165 107.259 178.131 107.685 179.38 107.685H182.522V93.2475Z" fill="white" fill-opacity="0.8"/>
<path d="M205.768 120.922H204.448V93.1327H198.684C198.484 98.0938 198.244 102.784 197.924 107.163C197.604 111.543 197.324 114.566 197.043 116.31C196.563 119.411 195.362 120.961 193.441 120.961V119.876C194.122 119.876 194.642 119.566 195.002 118.985C195.362 118.403 195.643 117.473 195.883 116.31C196.203 114.411 196.563 110.574 196.923 104.838C197.284 99.1015 197.484 94.8381 197.524 92.125H205.728V121L205.768 120.922Z" fill="white" fill-opacity="0.8"/>
<path d="M215.457 92.125H216.588L222.206 121H220.84L219.397 113.055H212.727L211.283 121H209.879L215.496 92.125H215.457ZM219.163 112.008L216.003 94.7218L212.883 112.008H219.163Z" fill="white" fill-opacity="0.8"/>
<path d="M233.208 105.768C234.104 106.776 234.533 108.055 234.533 109.528V115.729C234.533 117.24 234.104 118.481 233.208 119.488C232.311 120.496 231.103 121 229.505 121H224.945V92.125H233.52V93.2102H226.231V104.179H229.505C231.103 104.179 232.35 104.683 233.208 105.69V105.768ZM233.247 109.683C233.247 108.442 232.896 107.435 232.233 106.582C231.571 105.729 230.597 105.342 229.349 105.342H226.192V119.992H229.349C230.597 119.992 231.571 119.566 232.233 118.752C232.896 117.899 233.247 116.892 233.247 115.651V109.683Z" fill="white" fill-opacity="0.8"/>
<path d="M238.641 98.3477C238.641 96.5264 239.151 95.0087 240.133 93.8704C241.115 92.6941 242.45 92.125 244.139 92.125C245.828 92.125 247.163 92.6941 248.145 93.8704C249.127 95.0466 249.598 96.5264 249.598 98.3477V114.777C249.598 116.599 249.087 118.116 248.145 119.255C247.163 120.431 245.828 121 244.139 121C242.45 121 241.154 120.431 240.133 119.255C239.151 118.078 238.641 116.599 238.641 114.777V98.3477ZM241.076 118.458C241.822 119.444 242.843 119.976 244.139 119.976C245.435 119.976 246.495 119.482 247.202 118.458C247.948 117.433 248.302 116.181 248.302 114.663V98.4995C248.302 96.9818 247.948 95.7296 247.202 94.7052C246.456 93.7186 245.435 93.1874 244.139 93.1874C242.843 93.1874 241.822 93.6807 241.076 94.7052C240.329 95.7296 239.937 96.9818 239.937 98.4995V114.663C239.937 116.181 240.329 117.471 241.076 118.458Z" fill="white" fill-opacity="0.8"/>
<path d="M255.074 92.1638H259.465C261.117 92.1638 262.406 92.6676 263.292 93.6753C264.219 94.6831 264.662 95.9621 264.662 97.4349V103.869C264.662 105.38 264.219 106.621 263.292 107.628C262.366 108.636 261.117 109.14 259.465 109.14H256.404V121H255.074V92.125V92.1638ZM259.344 108.093C260.633 108.093 261.64 107.667 262.325 106.853C263.01 106 263.373 104.993 263.373 103.753V97.5899C263.373 96.3497 263.01 95.3419 262.325 94.4893C261.64 93.6366 260.633 93.249 259.344 93.249H256.404V108.093H259.344Z" fill="white" fill-opacity="0.8"/>
<path d="M271.61 92.125H272.741L278.358 121H276.993L275.549 113.055H268.879L267.436 121H266.031L271.649 92.125H271.61ZM275.315 112.008L272.156 94.7218L269.035 112.008H275.315Z" fill="white" fill-opacity="0.8"/>
<path d="M278.359 92.125H289.317V93.2102H284.51V121H283.166V93.2102H278.359V92.125Z" fill="white" fill-opacity="0.8"/>
<path d="M290.688 98.3477C290.688 96.5264 291.198 95.0087 292.18 93.8704C293.162 92.6941 294.497 92.125 296.186 92.125C297.874 92.125 299.21 92.6941 300.192 93.8704C301.173 95.0466 301.645 96.5264 301.645 98.3477V114.777C301.645 116.599 301.134 118.116 300.192 119.255C299.21 120.431 297.874 121 296.186 121C294.497 121 293.201 120.431 292.18 119.255C291.198 118.078 290.688 116.599 290.688 114.777V98.3477ZM293.122 118.458C293.869 119.444 294.89 119.976 296.186 119.976C297.482 119.976 298.542 119.482 299.249 118.458C299.995 117.433 300.349 116.181 300.349 114.663V98.4995C300.349 96.9818 299.995 95.7296 299.249 94.7052C298.503 93.7186 297.482 93.1874 296.186 93.1874C294.89 93.1874 293.869 93.6807 293.122 94.7052C292.376 95.7296 291.984 96.9818 291.984 98.4995V114.663C291.984 116.181 292.376 117.471 293.122 118.458Z" fill="white" fill-opacity="0.8"/>
<path d="M307.121 92.1638H311.512C313.164 92.1638 314.453 92.6676 315.339 93.6753C316.266 94.6831 316.709 95.9621 316.709 97.4349V103.869C316.709 105.38 316.266 106.621 315.339 107.628C314.412 108.636 313.164 109.14 311.512 109.14H308.45V121H307.121V92.125V92.1638ZM311.391 108.093C312.68 108.093 313.687 107.667 314.372 106.853C315.057 106 315.42 104.993 315.42 103.753V97.5899C315.42 96.3497 315.057 95.3419 314.372 94.4893C313.687 93.6366 312.68 93.249 311.391 93.249H308.45V108.093H311.391Z" fill="white" fill-opacity="0.8"/>
<path d="M331.774 92.125V121H330.459V96.3497L321.892 121H320.816V92.125H322.131V116.698L330.698 92.125H331.774Z" fill="white" fill-opacity="0.8"/>
<path d="M346.84 92.1637V121H345.511V108.73H342.207L337.494 121H335.883L340.959 108.653C339.75 108.42 338.783 107.801 338.098 106.795C337.373 105.788 337.051 104.705 337.051 103.427V97.4278C337.051 95.9569 337.534 94.7183 338.421 93.6733C339.347 92.6669 340.596 92.125 342.248 92.125H346.84V92.1637ZM345.511 93.2475H342.369C341.079 93.2475 340.113 93.6733 339.428 94.5248C338.743 95.3763 338.38 96.3827 338.38 97.5826V103.35C338.38 104.55 338.743 105.556 339.428 106.408C340.153 107.259 341.12 107.685 342.369 107.685H345.511V93.2475Z" fill="white" fill-opacity="0.8"/>
<path d="M20.8672 2.52602V73.099C20.8672 74.498 21.5355 75.625 22.3152 75.625H31.746C32.5628 75.625 33.194 74.498 33.194 73.099V2.52602C33.194 1.12699 32.5257 0 31.746 0H22.3152C21.4984 0 20.8672 1.12699 20.8672 2.52602Z" fill="white" fill-opacity="0.33"/>
<path d="M8.53906 2.52602V73.099C8.53906 74.498 9.66229 75.625 11.0262 75.625H15.6395C17.0034 75.625 18.1266 74.498 18.1266 73.099V2.52602C18.1266 1.12699 17.0034 0 15.6395 0H11.0262C9.66229 0 8.53906 1.12699 8.53906 2.52602Z" fill="white" fill-opacity="0.16"/>
<path d="M35.9336 2.52602V73.099C35.9336 74.498 36.8674 75.625 37.9881 75.625C39.146 75.625 40.0425 74.498 40.0425 73.099V2.52602C40.0425 1.12699 39.1087 0 37.9881 0C36.8301 0 35.9336 1.12699 35.9336 2.52602Z" fill="white" fill-opacity="0.36"/>
<path d="M70.1719 2.52213V73.1029C70.1719 74.4997 71.6979 75.625 73.6055 75.625H80.4347C82.3423 75.625 83.8684 74.4997 83.8684 73.1029V2.52213C83.8684 1.12526 82.3423 0 80.4347 0H73.6055C71.6979 0 70.1719 1.12526 70.1719 2.52213Z" fill="white" fill-opacity="0.73"/>
<path d="M91.7456 0H88.3214C87.3839 0 86.6094 1.12699 86.6094 2.52602V73.099C86.6094 74.498 87.3839 75.625 88.3214 75.625H91.7456C92.6831 75.625 93.4576 74.498 93.4576 73.099V2.52602C93.4576 1.12699 92.6831 0 91.7456 0Z" fill="white"/>
<path d="M61.9531 2.52602V73.099C61.9531 74.498 63.0823 75.625 64.5042 75.625H64.8806C66.3025 75.625 67.4317 74.498 67.4317 73.099V2.52602C67.4317 1.12699 66.3025 0 64.8806 0H64.5042C63.0823 0 61.9531 1.12699 61.9531 2.52602Z" fill="white" fill-opacity="0.49"/>
<path d="M42.7812 2.52602V73.099C42.7812 74.498 44.06 75.625 45.6773 75.625H56.321C57.9007 75.625 59.217 74.498 59.217 73.099V2.52602C59.217 1.12699 57.9383 0 56.321 0H45.6773C44.0976 0 42.7812 1.12699 42.7812 2.52602Z" fill="white" fill-opacity="0.37"/>
<path d="M1.69141 2.52602V73.099C1.69141 74.498 2.32661 75.625 3.12061 75.625H5.74081C6.53481 75.625 7.17 74.498 7.17 73.099V2.52602C7.17 1.12699 6.53481 0 5.74081 0H3.12061C2.32661 0 1.69141 1.12699 1.69141 2.52602Z" fill="white" fill-opacity="0.11"/>
</svg>
