<?xml version="1.0" encoding="utf-8"?><svg viewBox="0 0 502.66 502.66" xmlns="http://www.w3.org/2000/svg" xmlns:xlink="http://www.w3.org/1999/xlink"><style>:root>svg{display:none}:root>svg:target{display:block}</style><svg viewBox="0 0 28 28" id="arrow" xmlns="http://www.w3.org/2000/svg"><path d="m24.256 13.576-3.878-3.91.661-.666L26 14l-4.96 5-.662-.667 3.784-3.814H2v-.943h22.256Z"/></svg><svg viewBox="0 0 28 28" id="arrow-shrt-down" xmlns="http://www.w3.org/2000/svg"><path d="m4 9 10 10L24 9"/></svg><svg viewBox="0 0 28 28" id="arrow-shrt-left" xmlns="http://www.w3.org/2000/svg"><path d="M19 4 9 14l10 10"/></svg><svg viewBox="0 0 28 28" id="arrow-shrt-rigth" xmlns="http://www.w3.org/2000/svg"><path d="m9 4 10 10L9 24"/></svg><svg viewBox="0 0 28 28" id="arrow-shrt-up" xmlns="http://www.w3.org/2000/svg"><path d="M24 19 14 9 4 19"/></svg><svg viewBox="0 0 20 13" id="burger" xmlns="http://www.w3.org/2000/svg"><path d="M20 1H0V0h20v1Zm0 6H0V6h20v1ZM0 13h20v-1H0v1Z"/></svg><svg viewBox="0 0 20 20" id="check" xmlns="http://www.w3.org/2000/svg"><path d="M16.665 5 7.5 14.167 3.332 10"/></svg><svg viewBox="0 0 12 12" id="close" xmlns="http://www.w3.org/2000/svg"><path fill-rule="evenodd" clip-rule="evenodd" d="M1.28.22A.75.75 0 1 0 .22 1.28L4.94 6 .22 10.72a.75.75 0 1 0 1.06 1.06L6 7.06l4.72 4.72a.75.75 0 1 0 1.06-1.06L7.06 6l4.72-4.72A.75.75 0 0 0 10.72.22L6 4.94 1.28.22Z"/></svg><svg viewBox="0 0 35 35" id="fullscreen" xmlns="http://www.w3.org/2000/svg"><circle cx="17.5" cy="17.5" r="17.12"/><path d="M13.126 11.412c-.945 0-1.712.767-1.712 1.712v1.522a.57.57 0 1 0 1.141 0v-1.522a.57.57 0 0 1 .571-.57h1.522a.57.57 0 0 0 0-1.142h-1.522Zm7.228 0a.57.57 0 1 0 0 1.141h1.522a.57.57 0 0 1 .57.571v1.522a.57.57 0 1 0 1.142 0v-1.522c0-.945-.767-1.712-1.712-1.712h-1.522Zm-7.799 8.94a.57.57 0 0 0-1.14 0v1.522c0 .946.766 1.712 1.711 1.712h1.522a.57.57 0 0 0 0-1.141h-1.522a.57.57 0 0 1-.57-.57v-1.523Zm11.033 0a.57.57 0 0 0-1.141 0v1.522a.57.57 0 0 1-.571.57h-1.522a.57.57 0 1 0 0 1.142h1.522c.945 0 1.712-.766 1.712-1.712v-1.522Z"/></svg><svg viewBox="0 0 502.664 502.664" xml:space="preserve" id="icon" xmlns="http://www.w3.org/2000/svg"><path d="M153.821 358.226 0 274.337v-46.463l153.821-83.414v54.574L46.636 250.523l107.185 53.431v54.272zm26.273 29.358L282.103 115.08h32.227L212.084 387.584h-31.99zm168.749-29.358v-54.272l107.164-52.999-107.164-52.59v-53.927l153.821 83.522v46.183l-153.821 84.083z"/></svg><svg viewBox="0 0 18 18" id="location" xmlns="http://www.w3.org/2000/svg"><path fill-rule="evenodd" clip-rule="evenodd" d="M3.375 6.504c0-2.995 2.546-5.379 5.625-5.379s5.625 2.384 5.625 5.379c0 1.688-.913 3.777-1.913 5.583-1.015 1.832-2.184 3.483-2.81 4.33a1.117 1.117 0 0 1-1.803 0c-.627-.847-1.796-2.499-2.811-4.332-1-1.805-1.913-3.894-1.913-5.581ZM9 2.25c-2.51 0-4.5 1.932-4.5 4.254 0 1.371.775 3.235 1.772 5.036.98 1.77 2.114 3.375 2.728 4.204.614-.83 1.748-2.434 2.728-4.202.997-1.801 1.772-3.665 1.772-5.038 0-2.322-1.99-4.254-4.5-4.254Z"/><path fill-rule="evenodd" clip-rule="evenodd" d="M9 5.625a1.125 1.125 0 1 0 0 2.25 1.125 1.125 0 0 0 0-2.25ZM6.75 6.75a2.25 2.25 0 1 1 4.5 0 2.25 2.25 0 0 1-4.5 0Z"/></svg><svg viewBox="0 0 20 20" id="mail" xmlns="http://www.w3.org/2000/svg"><path fill-rule="evenodd" clip-rule="evenodd" d="M3.438 4.375a.937.937 0 0 0-.938.938v9.375c0 .517.42.937.938.937h13.124c.518 0 .938-.42.938-.938V5.313a.937.937 0 0 0-.938-.938H3.438Zm-2.188.938c0-1.209.98-2.188 2.188-2.188h13.124c1.209 0 2.188.98 2.188 2.188v9.375c0 1.208-.98 2.187-2.188 2.187H3.438a2.188 2.188 0 0 1-2.187-2.188V5.313Z"/><path fill-rule="evenodd" clip-rule="evenodd" d="M3.882 5.866a.625.625 0 0 1 .877-.11L10 9.834l5.241-4.076a.625.625 0 1 1 .768.986l-5.625 4.375a.625.625 0 0 1-.768 0L3.991 6.743a.625.625 0 0 1-.11-.877Z"/></svg><svg viewBox="0 0 28 28" id="search" xmlns="http://www.w3.org/2000/svg"><path fill-rule="evenodd" clip-rule="evenodd" d="M17.308 18.096A6.667 6.667 0 0 1 12.624 20C8.966 20 6 17.09 6 13.5S8.966 7 12.624 7c3.658 0 6.624 2.91 6.624 6.5a6.39 6.39 0 0 1-1.28 3.842L22 21.3l-.714.7-3.978-3.904Zm.94-4.596c0 3.02-2.5 5.5-5.624 5.5C9.5 19 7 16.52 7 13.5S9.5 8 12.624 8c3.124 0 5.624 2.48 5.624 5.5Z"/></svg></svg>